<svg xmlns="http://www.w3.org/2000/svg" xmlns:xlink="http://www.w3.org/1999/xlink" width="400" zoomAndPan="magnify" viewBox="0 0 300 299.999988" height="400" preserveAspectRatio="xMidYMid meet" version="1.0"><defs><clipPath id="e3e43143a6"><path d="M 15 35 L 289 35 L 289 267.074219 L 15 267.074219 Z M 15 35 " clip-rule="nonzero"/></clipPath></defs><rect x="-30" width="360" fill="#ffffff" y="-29.999999" height="359.999986" fill-opacity="1"/><rect x="-30" width="360" fill="#ffffff" y="-29.999999" height="359.999986" fill-opacity="1"/><g clip-path="url(#e3e43143a6)"><path fill="#a4506e" d="M 282.480469 149.753906 L 244.320312 113.949219 L 244.320312 67.507812 C 244.320312 58.902344 237.351562 51.933594 228.757812 51.933594 L 204.890625 51.933594 C 197.886719 51.933594 191.945312 56.59375 190.003906 62.988281 L 166.363281 40.808594 C 158.417969 33.355469 145.96875 33.355469 138.03125 40.808594 L 105.175781 71.640625 C 103.519531 73.191406 103.480469 75.800781 105.078125 77.410156 C 106.609375 78.9375 109.074219 78.980469 110.652344 77.5 L 143.507812 46.667969 C 145.941406 44.386719 149.070312 43.246094 152.1875 43.246094 C 155.3125 43.246094 158.441406 44.386719 160.875 46.675781 L 276.984375 155.628906 C 282.066406 160.199219 282.339844 168.710938 277.566406 173.601562 C 273.007812 178.695312 264.503906 178.953125 259.617188 174.183594 L 154.941406 75.941406 C 153.402344 74.5 151.003906 74.5 149.457031 75.941406 L 44.777344 174.171875 C 39.890625 178.949219 31.386719 178.675781 26.828125 173.589844 C 22.054688 168.699219 22.328125 160.183594 27.40625 155.617188 L 97.007812 90.3125 C 98.652344 88.761719 98.699219 86.152344 97.097656 84.542969 C 95.5625 83.015625 93.101562 82.972656 91.523438 84.453125 L 21.925781 149.753906 C 8.261719 162.464844 17.46875 185.734375 36.105469 185.636719 C 41.332031 185.636719 46.285156 183.695312 50.140625 180.136719 L 50.140625 225.160156 C 50.140625 248.394531 68.949219 267.230469 92.148438 267.230469 L 212.246094 267.230469 C 235.933594 267.269531 254.972656 247.523438 254.253906 223.84375 C 254.253906 221.644531 252.5625 219.726562 250.367188 219.664062 C 248.105469 219.585938 246.238281 221.40625 246.238281 223.664062 C 247.027344 242.960938 231.585938 259.238281 212.246094 259.191406 L 92.15625 259.191406 C 73.386719 259.191406 58.160156 243.953125 58.160156 225.15625 L 58.160156 172.613281 L 152.207031 84.371094 L 246.238281 172.613281 L 246.238281 204.769531 C 246.238281 206.964844 247.933594 208.882812 250.128906 208.945312 C 252.402344 209.015625 254.261719 207.195312 254.261719 204.933594 L 254.261719 180.128906 C 262.238281 187.828125 276.011719 187.296875 283.425781 179.074219 C 291.214844 171.101562 290.761719 157.210938 282.480469 149.753906 Z M 236.300781 106.425781 L 197.351562 69.875 L 197.351562 67.507812 C 197.351562 63.347656 200.730469 59.957031 204.890625 59.957031 L 228.757812 59.957031 C 232.914062 59.957031 236.300781 63.347656 236.300781 67.507812 Z M 236.300781 106.425781 " fill-opacity="1" fill-rule="nonzero"/></g><path fill="#a4506e" d="M 152.195312 176.207031 C 152.132812 176.207031 152.070312 176.207031 152.007812 176.207031 C 130.304688 176.316406 112.660156 194.078125 112.660156 215.804688 C 112.238281 227.003906 125.699219 234.113281 134.820312 227.75 C 139.972656 224.328125 145.988281 222.519531 152.199219 222.519531 C 158.414062 222.519531 164.425781 224.328125 169.578125 227.75 C 179.242188 234.371094 192.839844 226.457031 191.722656 214.734375 C 191.160156 193.449219 173.445312 176.207031 152.195312 176.207031 Z M 180.464844 221.363281 C 178.386719 222.476562 175.976562 222.359375 174.015625 221.058594 C 161.171875 212.332031 143.238281 212.332031 130.390625 221.058594 C 126.457031 223.90625 120.375 220.679688 120.679688 215.804688 C 120.679688 198.484375 134.75 184.324219 152.046875 184.238281 C 152.097656 184.238281 152.148438 184.238281 152.195312 184.238281 C 169.136719 184.238281 183.257812 197.980469 183.710938 214.945312 C 183.964844 217.558594 182.867188 220.132812 180.464844 221.363281 Z M 180.464844 221.363281 " fill-opacity="1" fill-rule="nonzero"/><path fill="#a4506e" d="M 152.199219 168.464844 C 162.054688 168.464844 170.070312 159.539062 170.070312 148.566406 C 170.070312 137.597656 162.054688 128.671875 152.199219 128.671875 C 142.351562 128.671875 134.335938 137.597656 134.335938 148.566406 C 134.335938 159.539062 142.351562 168.464844 152.199219 168.464844 Z M 152.199219 136.703125 C 157.632812 136.703125 162.050781 142.027344 162.050781 148.574219 C 162.050781 155.113281 157.632812 160.445312 152.199219 160.445312 C 146.769531 160.445312 142.351562 155.121094 142.351562 148.574219 C 142.351562 142.027344 146.769531 136.703125 152.199219 136.703125 Z M 152.199219 136.703125 " fill-opacity="1" fill-rule="nonzero"/><path fill="#a4506e" d="M 130.882812 165.542969 C 130.882812 156.183594 124.007812 148.5625 115.558594 148.5625 C 107.105469 148.5625 100.238281 156.175781 100.238281 165.542969 C 100.238281 174.90625 107.105469 182.519531 115.558594 182.519531 C 124.007812 182.519531 130.882812 174.90625 130.882812 165.542969 Z M 108.257812 165.542969 C 108.257812 160.605469 111.535156 156.59375 115.558594 156.59375 C 119.589844 156.59375 122.863281 160.609375 122.863281 165.542969 C 122.863281 170.480469 119.585938 174.492188 115.558594 174.492188 C 111.535156 174.496094 108.257812 170.480469 108.257812 165.542969 Z M 108.257812 165.542969 " fill-opacity="1" fill-rule="nonzero"/><path fill="#a4506e" d="M 188.839844 148.566406 C 180.390625 148.566406 173.519531 156.183594 173.519531 165.546875 C 173.519531 174.914062 180.390625 182.527344 188.839844 182.527344 C 197.292969 182.527344 204.160156 174.914062 204.160156 165.546875 C 204.160156 156.183594 197.292969 148.566406 188.839844 148.566406 Z M 188.839844 174.496094 C 184.816406 174.496094 181.539062 170.480469 181.539062 165.546875 C 181.539062 160.617188 184.816406 156.597656 188.839844 156.597656 C 192.871094 156.597656 196.148438 160.617188 196.148438 165.546875 C 196.140625 170.480469 192.871094 174.496094 188.839844 174.496094 Z M 188.839844 174.496094 " fill-opacity="1" fill-rule="nonzero"/></svg>